<?xml version="1.0" encoding="UTF-8"?>
<svg xmlns="http://www.w3.org/2000/svg" xmlns:xlink="http://www.w3.org/1999/xlink" width="24px" height="24px" viewBox="0 0 24 24" version="1.1">
<g id="surface1">
<path style=" stroke:none;fill-rule:nonzero;fill:rgb(44.705883%,88.627452%,68.235296%);fill-opacity:1;" d="M 21.671875 6.949219 C 21.03125 4.78125 19.21875 2.96875 17.050781 2.328125 C 15.398438 1.847656 14.261719 1.890625 13.46875 2.480469 C 12.519531 3.1875 12.410156 4.46875 12.410156 5.378906 L 12.410156 7.871094 C 12.410156 10.328125 13.53125 11.578125 15.730469 11.578125 L 18.601562 11.578125 C 19.5 11.578125 20.789062 11.46875 21.5 10.519531 C 22.109375 9.738281 22.160156 8.597656 21.671875 6.949219 Z M 21.671875 6.949219 "/>
<path style=" stroke:none;fill-rule:nonzero;fill:rgb(44.705883%,88.627452%,68.235296%);fill-opacity:1;" d="M 18.910156 13.359375 C 18.648438 13.0625 18.269531 12.890625 17.878906 12.890625 L 14.300781 12.890625 C 12.539062 12.890625 11.109375 11.460938 11.109375 9.699219 L 11.109375 6.121094 C 11.109375 5.730469 10.9375 5.351562 10.640625 5.089844 C 10.347656 4.832031 9.949219 4.710938 9.570312 4.761719 C 7.21875 5.0625 5.058594 6.351562 3.648438 8.292969 C 2.230469 10.242188 1.710938 12.621094 2.160156 15 C 2.808594 18.441406 5.558594 21.191406 9.007812 21.839844 C 9.558594 21.949219 10.109375 22 10.660156 22 C 12.46875 22 14.21875 21.441406 15.710938 20.351562 C 17.648438 18.941406 18.9375 16.78125 19.238281 14.429688 C 19.289062 14.042969 19.167969 13.652344 18.910156 13.359375 Z M 18.910156 13.359375 "/>
</g>
</svg>
