<?xml version="1.0" encoding="UTF-8"?>
<svg xmlns="http://www.w3.org/2000/svg" xmlns:xlink="http://www.w3.org/1999/xlink" width="24px" height="24px" viewBox="0 0 24 24" version="1.1">
<g id="surface1">
<path d="M 10.441406 2.445312 C 10.074219 3.640625 9.320312 6.253906 8.898438 8.832031 C 9.992188 9.007812 11.0625 9.121094 12 9.121094 C 12.9375 9.121094 14.007812 9.007812 15.101562 8.832031 C 14.679688 6.253906 13.925781 3.640625 13.558594 2.445312 C 13.050781 2.363281 12.53125 2.320312 12 2.320312 C 11.46875 2.320312 10.949219 2.363281 10.441406 2.445312 Z M 15.332031 2.910156 C 15.738281 4.304688 16.296875 6.429688 16.644531 8.546875 C 18.152344 8.238281 19.574219 7.859375 20.605469 7.5625 C 19.5 5.421875 17.617188 3.746094 15.332031 2.910156 Z M 21.214844 9.019531 C 20.121094 9.335938 18.542969 9.761719 16.859375 10.105469 C 16.929688 10.757812 16.972656 11.394531 16.972656 12 C 16.972656 12.882812 16.882812 13.839844 16.746094 14.804688 C 18.757812 14.386719 20.605469 13.847656 21.554688 13.558594 C 21.636719 13.050781 21.679688 12.53125 21.679688 12 C 21.679688 10.960938 21.515625 9.957031 21.214844 9.019531 Z M 21.089844 15.332031 C 19.917969 15.671875 18.230469 16.121094 16.464844 16.464844 C 16.121094 18.230469 15.671875 19.917969 15.332031 21.089844 C 17.996094 20.113281 20.113281 17.996094 21.089844 15.332031 Z M 13.558594 21.554688 C 13.847656 20.605469 14.386719 18.757812 14.804688 16.746094 C 13.839844 16.882812 12.882812 16.972656 12 16.972656 C 11.117188 16.972656 10.160156 16.882812 9.195312 16.746094 C 9.613281 18.757812 10.152344 20.605469 10.441406 21.554688 C 10.949219 21.636719 11.46875 21.679688 12 21.679688 C 12.53125 21.679688 13.050781 21.636719 13.558594 21.554688 Z M 8.667969 21.089844 C 8.328125 19.917969 7.878906 18.230469 7.535156 16.464844 C 5.769531 16.121094 4.082031 15.671875 2.910156 15.332031 C 3.886719 17.996094 6.003906 20.113281 8.667969 21.089844 Z M 2.445312 13.558594 C 3.394531 13.847656 5.242188 14.386719 7.253906 14.804688 C 7.117188 13.839844 7.027344 12.882812 7.027344 12 C 7.027344 11.394531 7.070312 10.757812 7.140625 10.105469 C 5.457031 9.761719 3.878906 9.335938 2.789062 9.019531 C 2.484375 9.957031 2.320312 10.960938 2.320312 12 C 2.320312 12.53125 2.363281 13.050781 2.445312 13.558594 Z M 3.394531 7.5625 C 4.425781 7.859375 5.847656 8.238281 7.355469 8.546875 C 7.703125 6.429688 8.261719 4.304688 8.667969 2.910156 C 6.382812 3.746094 4.5 5.421875 3.394531 7.5625 Z M 8.6875 10.390625 C 8.632812 10.953125 8.597656 11.496094 8.597656 12 C 8.597656 12.941406 8.710938 14.011719 8.890625 15.109375 C 9.988281 15.289062 11.058594 15.402344 12 15.402344 C 12.941406 15.402344 14.011719 15.289062 15.109375 15.109375 C 15.289062 14.011719 15.402344 12.941406 15.402344 12 C 15.402344 11.496094 15.367188 10.953125 15.3125 10.390625 C 14.175781 10.570312 13.035156 10.691406 12 10.691406 C 10.964844 10.691406 9.824219 10.570312 8.6875 10.390625 Z M 9.671875 0.992188 C 10.425781 0.832031 11.203125 0.75 12 0.75 C 12.796875 0.75 13.574219 0.832031 14.328125 0.992188 C 18.011719 1.765625 21.027344 4.339844 22.421875 7.75 C 22.957031 9.0625 23.25 10.5 23.25 12 C 23.25 12.796875 23.167969 13.574219 23.007812 14.328125 C 22.09375 18.671875 18.671875 22.09375 14.328125 23.007812 C 13.574219 23.167969 12.796875 23.25 12 23.25 C 11.203125 23.25 10.425781 23.167969 9.671875 23.007812 C 5.328125 22.09375 1.90625 18.671875 0.992188 14.328125 C 0.832031 13.574219 0.75 12.796875 0.75 12 C 0.75 10.496094 1.046875 9.0625 1.582031 7.75 C 2.972656 4.339844 5.992188 1.765625 9.671875 0.992188 Z M 9.671875 0.992188 "/>
</g>
</svg>
